<mxfile host="app.diagrams.net" modified="2023-08-12T13:48:12.367Z" agent="Mozilla/5.0 (Windows NT 10.0; Win64; x64; rv:109.0) Gecko/20100101 Firefox/116.0" etag="dek9TqJEEjdZwdTzAimg" version="21.3.4" type="device">
  <diagram id="AepZYauDItt8KZj39zgx" name="Page-1">
    <mxGraphModel dx="1434" dy="1951" grid="1" gridSize="10" guides="1" tooltips="1" connect="1" arrows="1" fold="1" page="1" pageScale="1" pageWidth="827" pageHeight="1169" math="0" shadow="0">
      <root>
        <mxCell id="0" />
        <mxCell id="1" parent="0" />
        <mxCell id="--austjQXblcFB35UyM7-92" value="&lt;div align=&quot;center&quot;&gt;Ability&lt;/div&gt;" style="rounded=1;whiteSpace=wrap;html=1;fontSize=24;fontStyle=1;container=1;align=center;fontFamily=Times New Roman;" vertex="1" parent="1">
          <mxGeometry x="610" y="-170" width="430" height="260" as="geometry" />
        </mxCell>
        <mxCell id="--austjQXblcFB35UyM7-95" value="Jump" style="rounded=1;whiteSpace=wrap;html=1;fontSize=24;fontStyle=1;fontFamily=Times New Roman;" vertex="1" parent="--austjQXblcFB35UyM7-92">
          <mxGeometry x="57" y="178.28571428571428" width="120" height="44.57142857142857" as="geometry" />
        </mxCell>
        <mxCell id="--austjQXblcFB35UyM7-96" value="Dash" style="rounded=1;whiteSpace=wrap;html=1;fontSize=24;fontStyle=1;fontFamily=Times New Roman;" vertex="1" parent="--austjQXblcFB35UyM7-92">
          <mxGeometry x="240" y="178.28571428571428" width="120" height="44.57142857142857" as="geometry" />
        </mxCell>
        <mxCell id="--austjQXblcFB35UyM7-116" value="&lt;div&gt;Jump Input&lt;/div&gt;CanJump" style="edgeStyle=orthogonalEdgeStyle;shape=connector;rounded=0;orthogonalLoop=1;jettySize=auto;html=1;labelBackgroundColor=default;strokeColor=default;strokeWidth=2;fontFamily=Times New Roman;fontSize=13;fontColor=default;endArrow=classic;" edge="1" parent="1" source="--austjQXblcFB35UyM7-109" target="--austjQXblcFB35UyM7-95">
          <mxGeometry relative="1" as="geometry">
            <Array as="points">
              <mxPoint x="730" y="260" />
            </Array>
          </mxGeometry>
        </mxCell>
        <mxCell id="--austjQXblcFB35UyM7-109" value="" style="rounded=1;whiteSpace=wrap;html=1;fontFamily=Times New Roman;fontSize=13;fontColor=default;container=1;" vertex="1" parent="1">
          <mxGeometry x="110" y="210" width="510" height="320" as="geometry">
            <mxRectangle x="90" y="210" width="50" height="40" as="alternateBounds" />
          </mxGeometry>
        </mxCell>
        <mxCell id="--austjQXblcFB35UyM7-111" value="&lt;div&gt;Ground&lt;/div&gt;" style="text;html=1;strokeColor=none;fillColor=none;align=center;verticalAlign=middle;whiteSpace=wrap;rounded=0;fontSize=13;fontFamily=Times New Roman;fontColor=default;" vertex="1" parent="--austjQXblcFB35UyM7-109">
          <mxGeometry x="225" y="30.476190476190474" width="60" height="45.71428571428571" as="geometry" />
        </mxCell>
        <mxCell id="--austjQXblcFB35UyM7-117" value="&lt;font size=&quot;1&quot;&gt;&lt;b style=&quot;font-size: 24px;&quot;&gt;Land&lt;/b&gt;&lt;/font&gt;" style="rounded=1;whiteSpace=wrap;html=1;fontFamily=Times New Roman;" vertex="1" parent="--austjQXblcFB35UyM7-109">
          <mxGeometry x="184" y="210" width="120" height="60" as="geometry" />
        </mxCell>
        <mxCell id="--austjQXblcFB35UyM7-107" value="&lt;font style=&quot;font-size: 13px;&quot;&gt;XInput != 0&lt;br&gt;&lt;/font&gt;" style="edgeStyle=orthogonalEdgeStyle;rounded=0;orthogonalLoop=1;jettySize=auto;html=1;exitX=1;exitY=0.25;exitDx=0;exitDy=0;entryX=0;entryY=0.25;entryDx=0;entryDy=0;strokeWidth=2;fontFamily=Times New Roman;" edge="1" parent="1" source="--austjQXblcFB35UyM7-90" target="--austjQXblcFB35UyM7-91">
          <mxGeometry relative="1" as="geometry" />
        </mxCell>
        <mxCell id="--austjQXblcFB35UyM7-90" value="&lt;span style=&quot;font-size: 24px;&quot;&gt;Idle&lt;br style=&quot;font-size: 24px;&quot;&gt;&lt;/span&gt;" style="rounded=1;whiteSpace=wrap;html=1;fontFamily=Times New Roman;fontSize=24;fontStyle=1" vertex="1" parent="1">
          <mxGeometry x="160" y="290" width="120" height="60" as="geometry" />
        </mxCell>
        <mxCell id="--austjQXblcFB35UyM7-108" value="XInput == 0" style="edgeStyle=orthogonalEdgeStyle;rounded=0;orthogonalLoop=1;jettySize=auto;html=1;exitX=0;exitY=0.75;exitDx=0;exitDy=0;entryX=1;entryY=0.75;entryDx=0;entryDy=0;strokeWidth=2;fontSize=13;fontFamily=Times New Roman;" edge="1" parent="1" source="--austjQXblcFB35UyM7-91" target="--austjQXblcFB35UyM7-90">
          <mxGeometry relative="1" as="geometry" />
        </mxCell>
        <mxCell id="--austjQXblcFB35UyM7-91" value="&lt;span style=&quot;font-size: 24px;&quot;&gt;&lt;font style=&quot;font-size: 24px;&quot;&gt;Move&lt;/font&gt;&lt;/span&gt;" style="rounded=1;whiteSpace=wrap;html=1;fontSize=24;fontStyle=1;fontFamily=Times New Roman;" vertex="1" parent="1">
          <mxGeometry x="440" y="290" width="120" height="60" as="geometry" />
        </mxCell>
        <mxCell id="--austjQXblcFB35UyM7-114" value="IsGrounded" style="edgeStyle=orthogonalEdgeStyle;shape=connector;rounded=0;orthogonalLoop=1;jettySize=auto;html=1;exitX=0;exitY=1;exitDx=0;exitDy=0;entryX=0.5;entryY=1;entryDx=0;entryDy=0;labelBackgroundColor=default;strokeColor=default;strokeWidth=2;fontFamily=Times New Roman;fontSize=13;fontColor=default;endArrow=classic;" edge="1" parent="1" source="--austjQXblcFB35UyM7-97" target="--austjQXblcFB35UyM7-117">
          <mxGeometry relative="1" as="geometry">
            <Array as="points">
              <mxPoint x="950" y="590" />
              <mxPoint x="354" y="590" />
            </Array>
          </mxGeometry>
        </mxCell>
        <mxCell id="--austjQXblcFB35UyM7-97" value="&lt;div&gt;InAir&lt;/div&gt;" style="rounded=1;whiteSpace=wrap;html=1;fontSize=24;fontStyle=1;fontFamily=Times New Roman;" vertex="1" parent="1">
          <mxGeometry x="950" y="360" width="120" height="60" as="geometry" />
        </mxCell>
        <mxCell id="--austjQXblcFB35UyM7-115" value="&lt;div&gt;Ability Down&lt;/div&gt;! IsGrounded" style="edgeStyle=orthogonalEdgeStyle;shape=connector;rounded=0;orthogonalLoop=1;jettySize=auto;html=1;labelBackgroundColor=default;strokeColor=default;strokeWidth=2;fontFamily=Times New Roman;fontSize=13;fontColor=default;endArrow=classic;" edge="1" parent="1" source="--austjQXblcFB35UyM7-92" target="--austjQXblcFB35UyM7-97">
          <mxGeometry relative="1" as="geometry">
            <Array as="points">
              <mxPoint x="850" y="280" />
              <mxPoint x="1010" y="280" />
            </Array>
          </mxGeometry>
        </mxCell>
        <mxCell id="--austjQXblcFB35UyM7-118" style="edgeStyle=orthogonalEdgeStyle;shape=connector;rounded=0;orthogonalLoop=1;jettySize=auto;html=1;labelBackgroundColor=default;strokeColor=default;strokeWidth=2;fontFamily=Helvetica;fontSize=13;fontColor=default;endArrow=classic;" edge="1" parent="1" source="--austjQXblcFB35UyM7-117" target="--austjQXblcFB35UyM7-90">
          <mxGeometry relative="1" as="geometry" />
        </mxCell>
        <mxCell id="--austjQXblcFB35UyM7-119" value="Animation Over" style="edgeLabel;html=1;align=center;verticalAlign=middle;resizable=0;points=[];fontSize=13;fontFamily=Helvetica;fontColor=default;" vertex="1" connectable="0" parent="--austjQXblcFB35UyM7-118">
          <mxGeometry x="0.1034" relative="1" as="geometry">
            <mxPoint as="offset" />
          </mxGeometry>
        </mxCell>
        <mxCell id="--austjQXblcFB35UyM7-120" value="XInput" style="edgeStyle=orthogonalEdgeStyle;shape=connector;rounded=0;orthogonalLoop=1;jettySize=auto;html=1;labelBackgroundColor=default;strokeColor=default;strokeWidth=2;fontFamily=Helvetica;fontSize=13;fontColor=default;endArrow=classic;" edge="1" parent="1" source="--austjQXblcFB35UyM7-117" target="--austjQXblcFB35UyM7-91">
          <mxGeometry relative="1" as="geometry" />
        </mxCell>
      </root>
    </mxGraphModel>
  </diagram>
</mxfile>
